<?xml version="1.0" encoding="utf-8"?>
<!-- Generator: Adobe Illustrator 19.1.0, SVG Export Plug-In . SVG Version: 6.00 Build 0)  -->
<svg version="1.1" id="Layer_1" xmlns="http://www.w3.org/2000/svg" xmlns:xlink="http://www.w3.org/1999/xlink" x="0px" y="0px"
	 viewBox="0 0 960.6 693.8" style="enable-background:new 0 0 960.6 693.8;" xml:space="preserve">
<style type="text/css">
	.st0{opacity:8.000000e-02;}
</style>
<g class="st0">
	<path d="M501.9,0c-4.2,12.7-14.4,19.7-27.2,19.2c-10-0.4-19.5-5.8-29.1,6.1c-5.4,6.6-19.5,6.2-30.9,9.3c3.8,5,7.4,9.7,9.9,13
		c12.5-4.3,24-9.9,36.1-12.1c11.4-2.1,13.2,2.4,8.4,12.6c-6,12.8-17.3,16.1-29.5,19.6c-10.8,3-20.9,8.3-31.3,12.6
		c-3.6,1.5-7,3.3-10.5,5c-1.3-0.9-2.5-1.8-3.8-2.7c2.3-6.9,2.7-16.3,7.5-20.3c7.6-6.4,5.6-11.5,2-17.3c-10.5-16.9-10.9-17,2.2-30.5
		C410.7,9,416.9,4.8,422.6,0C449.1,0,475.5,0,501.9,0z M464.3,44.6c-15.5-5.6-27.1,0-30.8,14C447.6,63.5,455.6,54.9,464.3,44.6z"/>
	<path d="M960.6,658c-8.3-11.8-20-16.1-35-15.6c1.3,2.3,2.7,4.2,3.6,6.4c2,4.7,6.1,10.3,5,14.3c-3.3,12.4-2.4,22.4,10.1,29.6
		c-13.3,1.6-19.7-3.5-20.1-15.2c-0.1-3.9,1.1-7.9,0.8-11.9c-0.3-4.1-1.2-11.5-2.7-11.7c-12.7-1.7-20.4-15.7-35.1-12.9
		c-11.6,2.2-21.7-3.1-26.9-13.7c-2.7-5.4-4.1-13.3-2.2-18.7c2.6-7.3,9.3-12.9,13.5-19.8c8-13,20.4-9.9,30.5-6.4
		c5.6,1.9,9.6,10.6,12.9,17c3.7,7.1,4,15.6,13.7,19.1c3.3,1.2,4.2,8.8,6.3,13.9c7.4,3.3,16.4,7.3,25.5,11.3
		C960.6,648.4,960.6,653.2,960.6,658z M910.3,631c1.3-2.9,5.8-8.3,5.1-12.9c-1.1-7.2-4.6-14.7-9.1-20.5c-3.3-4.3-9.3-8-14.6-9
		c-12.8-2.4-17.9,6.8-21,17.1c-1.8,6.2-6.1,13.7-4.1,18.5c3.8,9,13.3,11.2,23.2,9.4C895.5,632.7,901.3,632.2,910.3,631z"/>
	<path d="M309.7,52.8c-5.1-5.7-10.2-11.2-15.2-17c-3.2-3.8-6.1-7.8-9.2-11.8c-15.7,8.6-50.5-6.2-54.8-24c2.4,0,4.8,0,7.2,0
		c2.3,10.5,8.9,14.9,19.5,14.8c10.2-0.2,16.6-4.7,19-14.8c1.6,0,3.2,0,4.8,0c-1,5.6-1.9,11.2-3,17.5c4.4-3.9,8.3-7.5,12.2-11
		c2.1,5.2,4.3,10.5,6.4,15.7c1,0.2,2,0.4,3,0.6c1-7.6,2-15.2,3-22.8c4.8,0,9.6,0,14.4,0c-1.7,7-0.8,13.9-8.9,19.4
		c-8.9,6.1-1.4,15,2.4,21.7c1.5,2.6,6.7,3.1,10.2,4.6c0.6-1.1,1.2-2.1,1.8-3.2c-2.1-5.7-4.3-11.4-6.4-17.2c1,0.5,1.9,1,2.9,1.5
		c3-3.7,7.2-6.9,8.7-11.2c1.7-4.8,1-10.4,1.3-15.6c1.6,0,3.2,0,4.8,0c1.1,6.5,1.5,13.3,3.6,19.5c2.6,7.4,7.1,14.4,16.3,13.7
		c2.7-0.2,6.9-4.5,7.2-7.3c1.1-9.1-4.6-14.1-12.9-16.5c-0.6-0.2-1.2-0.7-2.3-1.5c1.7-2.7,3.3-5.3,4.9-7.9c4.8,0,9.6,0,14.4,0
		c-0.1,5.1-2.2,11.5,0.1,15c8.5,12.9-0.9,20.5-6.9,29.2c-1.3,1.8-2.6,3.7-4.1,5.3c-1.5,1.5-3.3,2.6-5,3.9c-1.3-1.7-3.4-3.4-3.7-5.2
		c-1.3-9.8-7.9-14.8-15.4-20.8c-2,9.4-2.5,17.4-5.9,23.9c-1.2,2.3-9.6,0.7-14.7,1L309.7,52.8z"/>
	<path d="M960.6,622c-20.1-15.8-34-36.8-44.8-59c-9.8-20.2-15.7-42.5-22.2-64.2c-1.4-4.8,1.4-10.8,2.3-16.3c1.8-0.2,3.6-0.4,5.4-0.6
		c5.1,9.2,10.5,18.2,15.2,27.5c11.7,22.9,22.9,46.1,34.7,68.9c2,3.9,6.1,6.7,9.2,10c0,4,0,8,0,12c-2.3-1.5-5.4-2.5-6.8-4.6
		c-9.9-15.2-20-30.3-28.8-46.1c-6.1-10.9-10.1-22.8-15.1-34.3c-1.8,4.6-2,8.7-1.1,12.4c5.9,22.5,16.7,42.7,31.3,60.7
		c6.2,7.7,13.7,14.3,20.6,21.5C960.6,614,960.6,618,960.6,622z"/>
	<path d="M960.6,492.3c-5.2-8.6-9.3-18.2-15.8-25.6c-13.1-15-15-14.9-32.2-8.3c-4.3,1.7-8.9,2.6-13.5,3.9
		c-3.9-18.8,1.1-21.3,18.1-27.9c15.8-6.2,29.8-0.1,43.4,7.5c0,3.2,0,6.4,0,9.6c-2.5-1.7-5.3-3.1-7.6-5c-11.7-9.5-32.8-8.9-44,3.2
		c8.5,0,15.4-0.5,22.3,0.1c13.8,1.2,19.7,13.7,29.3,21C960.6,477.9,960.6,485.1,960.6,492.3z"/>
	<path d="M960.6,571.5c-2.5-7.3-4.7-14.7-7.7-21.7c-3.8-9.1-7.6-18.3-12.8-26.6c-6-9.8-14.3-18.2-20-28.2c-2-3.4-0.6-10.9,2.1-14.3
		c3.9-5.2,8.7-3.7,13.4,2c7.6,9.4,16.6,17.7,25,26.5c0,4,0,8,0,12c-10.4-11.9-20.8-23.9-32.8-37.7c-0.3,5.1-1.4,8-0.4,9.5
		c7,11.1,14.1,22,21.7,32.7c3.2,4.5,7.6,8.2,11.5,12.3C960.6,549.1,960.6,560.3,960.6,571.5z"/>
	<path d="M0,470.7c24.1,0,37.1,17.2,29.9,41.6c-9.7-1-19.8-2.1-29.9-3.2c0-4,0-8,0-12c7.7,2.8,15.4,5.6,23.7,8.7
		c2.4-18.8-4.7-26.2-23.7-27.9C0,475.5,0,473.1,0,470.7z"/>
	<path d="M0,561.9c8.8-0.8,14.2,2.6,16.1,11.7c2.6,12.5,6.1,24.9,8.4,37.5c0.7,3.9-1.5,8.4-2.5,13.3c-7.8,0-14.9,0-22,0
		c0-2.4,0-4.8,0-7.2c18.5-0.2,18.5-0.3,15.2-19.7c-0.7-4.3-0.6-9.2-2.8-12.6c-3.2-5-8.2-8.9-12.4-13.3C0,568.3,0,565.1,0,561.9z"/>
	<path d="M888.6,251.9c0,1.6,0,3.2,0,4.8c-0.4,18.1,0.8,20.1,18.2,22.2c17.8,2.1,35.8,3.1,53.7,4.5c0,1.6,0,3.2,0,4.8
		c-17.1-1.1-34.2-1.7-51.2-3.6c-6.7-0.7-13.9-2.9-19.4-6.7C881,271.6,881.1,261.8,888.6,251.9z"/>
	<path d="M960.6,321.8c-9.2-8.4-18.5-13.3-30.5-4.1c-1.8,1.4-7.5-3.5-11.6-3.9c-22.4-2-25.6,1.1-25.1,23.8
		c-0.5-4.3-0.9-8.6-1.6-12.9c-1.5-9.4,3.8-13.2,12-13.8c7.1-0.5,14.4-0.6,21.4,0.4c14.5,2,24.8-6,35.4-13.6
		C960.6,305.8,960.6,313.8,960.6,321.8z"/>
	<path d="M907.6,356.4c2.2,2.2,4.1,5.3,6.8,6.4c4.4,1.8,9.8,4.1,13.8,2.9c2.4-0.7,4-7.6,4.2-11.8c0.7-17.2,3.2-20,28.2-27.3
		c0,0.8,0,1.6,0,2.4c-7.5,3.4-15.2,6.6-22.4,10.5c-1.9,1.1-3.1,4.4-3.7,6.9c-0.7,2.6,0.4,5.8-0.4,8.3c-2.3,6.4-5.2,12.6-7.9,18.9
		C919.9,367.9,913.8,362.1,907.6,356.4z"/>
	<path d="M946.6,384c-0.5,6.8-0.9,13.6-1.4,21c6.6-1.7,11-2.8,15.4-4c0,7.2,0,14.4,0,21.6C940.7,413.2,937.5,413.9,946.6,384z"/>
	<path d="M960.6,269c-12-3.3-24.1-6.4-36.1-10.1c-1.9-0.6-3.1-3.5-4.7-5.3c2.1-0.5,4.2-0.9,6.3-1.4c0.9,0.1,1.7,0.2,2.6,0.3
		c10.6,3.1,21.2,6.2,31.8,9.3C960.6,264.2,960.6,266.6,960.6,269z"/>
	<path d="M0,658c3.4,3,8.2,5.4,10,9.2c3.7,8,5.7,16.7,8.4,25.1c-1.3,0.5-2.7,1-4,1.5c-3-6.5-5.8-13.1-9.1-19.4c-1-1.9-3.5-3-5.3-4.4
		C0,666,0,662,0,658z"/>
	<path d="M336.3,379.3c-5-4.8-9.6-10-15-14.2c-6-4.7-12.8-8.4-19.8-13c3.6-4.3,6.5-7.6,9.5-11.2c-38.5-21-49.7-51.7-28.5-80.4
		c11.3,9.3,23.6,17.6,33.3,28.2c4.3,4.7,4.2,14.2,4.5,21.5c0.7,14.4,11.5,22.1,24.8,16.7c19.4-7.9,19.4-7.9,34,8.2
		c0.5,0.5,1.3,0.6,3.7,1.6c1-4.2,2.2-8.1,2.7-12.1c1.2-8.7,6-11.9,14.1-9.2c9.7,3.3,19.3,7.3,29.2,11.1c8-10.8-5.8-14.3-7.1-22
		c-1.4-8.1-5-15.8-7.3-23.8c-2.3-8.1-4.1-16.4-7-27.9c6.3,3.4,11,6,16.9,9.2c1.9-8.8,4.1-18.4,6.6-30c3.3,3.6,6.2,6.7,10.3,11.1
		c13.2-9.5,10.1-28.8,20.8-39.7c1.4,0.2,2.7,0.4,4.1,0.6c-0.5,6.9,0.3,14.2-1.8,20.6c-4.2,12.9-9.1,25.3-4.4,42.3
		c4.4-7,7.4-11.8,12.5-19.9c1.2,8.9,1.9,14.6,3,23c5.8-4.6,10.7-8.7,15.8-12.5c1.4-1.1,3.6-1.1,5.5-1.6c0,1.7,0.5,3.6,0,5.2
		c-1.6,4.7-3.7,9.2-3.4,15.4c5.1-3.3,10.3-6.7,15.7-10.2c4.6,13.7,0.1,24.6-10,30.9c-18.4,11.3-26.2,15.7-31.6,45.7
		c-12.1-2.5-24.1-5.3-36.2-7.2c-2.1-0.3-6.2,2.2-6.8,4.2c-2.5,8.3-4,16.9-6.5,28.5c7.5-6.1,13.5-9.7,17.7-14.7
		c5.4-6.4,8.6-6.7,14.8-0.5c4.8,4.8,12.1,7,18.3,10.3c4.3-9,9-17.9,12.8-27c2.5-5.9,2.1-13.9,6-18.3c17.7-19.6,32.7-19.1,55.5-8.4
		c-9-24.2-14.5-49.3-35.5-65.3c-5.1-3.9-14.6-2-22.6-2.8c-1.3-8.9,3.9-14.9,11.1-16.7c25.8-6.4,48.5,1.7,57.3,29.3
		c6.5,20.4,15.8,35.1,37.6,43.3c11.9,4.5,20.8,18.5,29.8,29.3c9.1,10.8,12.6,24.1,12.9,38.5c0.1,2.8,5.8,5.4,8.8,8.1
		c1.2-3.4,3.7-7,3.3-10.1c-1.1-8.4-4.9-16.6-5.2-24.9c-0.8-23.8,10-36.5,33-43.5c20.6-6.3,28-16.8,27.1-35.8
		c-0.8-17.6,13.4-36.6,28.2-40.5c24.1-6.5,47.3-0.2,56.7,17.3c3.9,7.3,2.9,17.1,4.1,25.7l0.4-0.4c-5.9,4.8-11.3,10.6-17.9,14.3
		c-11,6.1-21.7-3.9-20.8-19.7c3.5-0.7,7.3-1.4,11.1-2.1c1.3-11.9-8.7-12.1-15-12.6c-4-0.3-9.4,5.3-12.6,9.4c-2,2.6-1.8,7.7-1.2,11.4
		c5.7,33.9-13.3,47.4-36,64.4c-2.6,2-6.8,2.1-10.3,2.7c-18.8,3.2-24.6,13.6-18.4,33.2c7.1-2.9,14-6.5,21.3-8.6
		c7.7-2.2,14.2-2.3,15.7,9.4c1.3,10.5,6.2,20.6,9.9,32c-8.5,1.1-15.5,3-22.5,2.7c-24.5-1-45.3,8-64.6,21.7
		c-5.7,4-10.8,8.8-16.7,12.4c-1.6,1-6.9-0.5-7.5-2.1c-4.6-11.3-8.5-22.9-12.4-34.5c-0.7-2.2,0-4.9-0.7-7.1
		c-4.6-14.7-4.7-14.6,9.9-15.3c8.3-0.4,12.3-0.5,6.5-11.5c-6.1-11.5-12.9-21-23.6-27.8c-3.8-2.4-8.5-3.4-15.5-6.1
		c3.8,10.2,7.1,17.7,9.4,25.5c4.8,15.6,3.1,32.8-19.1,38.6c-16.9,4.4-34.2,7.4-51,11c-6.1-17.3,6.8-34.2,19.5-37.3
		c6.3-1.5,12.8-3.3,18.3-6.6c7.9-4.7,7.1-14.7-0.8-19.3c-21.4-12.4-26.7-10.4-40.3,11.6c-3.9,6.3-11.1,10.8-17.3,15.5
		c-8.5,6.3-17.6,11.9-26.4,17.8c0.7,1.3,1.4,2.7,2.1,4c8.3-1.5,16.7-2.3,24.8-4.6c8.8-2.5,10.8,1.5,10.7,8.9c-0.1,5.6,0,11.1,0,18.8
		c12.2-0.8,23.7-1.6,37.6-2.5c-7.3,9.7-20,15.4-13.9,28.9c13.9-4.6,19.3-0.1,21.9,14.9c3.8,21.2,9.2,42,13.3,63.1
		c0.5,2.4-3.1,7.7-5.3,8c-5.7,0.7-13.4,3.2-15.3-6.3c-3.3-16.6-6.6-33.2-10-49.8c-0.5-2.6-1.7-5.1-3.1-9.1c-9.1,13.5,3.4,24.6,1,36
		c-2.4,11.8-5.9,23.5-8.5,33.3c11.2,3,22.3,4.3,31.6,9c13.3,6.8,20.6,18.7,20.4,34.5c-0.1,10.7,11.8,23.4,21.6,27
		c4.8,1.8,8.6,7.7,11.7,12.5c2.2,3.5,2.3,8.3,3.8,14.2c4.1-2.5,7.4-4.7,10.9-6.9c12.5,10,13.3,9.9,28.1-5.2c9.6-9.7,14.5-9,20.6,3.1
		c9.3,18.3,22,21.3,41.4,13.1c10.4-4.4,22.6-4.3,37.8-6.9c-9.2,26.4-12.6,50.1-21.7,72.1c-1.7-0.4-3.4-0.9-5.1-1.3
		c2.5-12.9,5-25.8,7.6-39.6c-11.5,9-22,16.3-31.2,25c-2.8,2.7-2,9.3-2.8,14.3c-6.7,0-16.4,0-26,0c22.2-18.8,44.9-38,67.6-57.2
		c-1-1.7-2-3.5-3.1-5.2c-6.3,2.7-13.8,4.1-18.8,8.4c-19.6,16.9-38.3,34.8-57.7,52c-2.5,2.2-6.9,2.3-12,3.9c8-12.3,7.3-13.5-8.5-16.6
		c0.5,20.8-15.4,13.4-28.2,16.3c3.6-6.6,6.3-11.6,9-16.6c-1.3-0.9-2.5-1.9-3.8-2.8c-1.7,2.5-4.8,4.9-5,7.5c-0.6,10.5-6,12-15.2,10.7
		c-6.9-1-14.1,0-21.1,0.5c-8.9,0.6-16.7-0.8-17-11.6c-0.5-16.5-11.5-23.9-24.3-29.7c-22.1-9.9-22.4-10.4-12.1-33.2
		c1.6-3.6,2.9-7.3,2.4-13.4c-5.2,4-10.5,8-15.7,12.1c-2.4,1.9-4.1,4.6-6.7,6.2c-6.2,4-10.5,3.1-11.3-5.3c-0.4-4-1.1-7.9-2.2-11.7
		c-2.6-9.5-6-16.3-18.6-17.1c-18.4-1.3-29.3-15.9-40.2-29.2c-15.2-18.5-17.7-40.4-18.4-63.1c-0.1-4.7-3-9.3-4.6-14
		c-4,1.9-7.9,4.1-12.1,5.7c-2.6,1-6.4,2.5-8.1,1.4c-6.5-4-11.8-10.1-18.5-13.5c-11.5-5.9-9.6-12.4-3.2-20.6c2.4-3,3.8-6.8,6.2-11.2
		c-10.8-1.6-10.5-8.6-10.1-16.2c0.4-8.4,0.2-16.8,0.1-25.2c-0.1-18.1-0.9-19.2-18.4-25.4L336.3,379.3z M495.8,613.5
		c1.1-1,3.7-3.3,6.1-5.8c6.4-6.5,12.8-9.7,23-8.1c7.8,1.2,17.4-2,24.6-6.1c7.4-4.3,12.2-28.8,9-35.5c-7-14.5-23.5-22.5-38.9-19.4
		c-5.6,1.1-11.4,1.5-16.8,2.3c4.6-15.1,11.1-28.6,12.3-42.5c1.9-22.6,0.5-45.4,0-68.2c-0.1-2.5-3.7-7.2-5.7-7.2
		c-15.5-0.1-31.6-1.7-46.4,1.6c-22.7,5.1-38.1,22.1-51,40.6c-3.4,4.9-4.5,12.6-3.9,18.7c0.9,10.1,3.9,20,6.3,29.9
		c2.9,11.8,3.7,24.8,9.6,34.8c8.6,14.8,19.7,28.8,38.5,32.8c5.1,1.1,11.5,2.2,14.7,5.6C484,594.8,489.2,603.9,495.8,613.5z
		 M764.7,268c19-3.6,24.7-15.1,13.5-29.6c-13.2-17-22-17.4-47.5-11.6c-13,3-19.3,12.3-20.6,29c-1.1,13.5-2.7,27.1-15.4,35.4
		c-7.4,4.9-15.7,8.5-22.9,13.6c-7.6,5.4-17.7,10.6-20.8,18.4c-3.6,8.8-1.7,20.4-0.4,30.6c0.6,4.8,5.4,9.1,8.4,13.7
		c-5.6-24.6,4.5-45.1,24.9-48c24.6-3.5,40.8-22.6,40.8-47.2c0-7.9-0.5-16.5,2.4-23.4c2.7-6.3,8.8-13.3,15-15.3
		c10.1-3.3,26,6.9,31.4,15.8c6,10-6.1,10.8-7.8,16.8C765.6,266.8,765.1,267.4,764.7,268z M501.2,230.8c1.6,1.5,2.8,2.9,4.2,3.8
		c17.9,12.1,30.2,28.4,36.4,49c5.4,18,15.6,30.9,33.5,37.8c7.7,3,16.3,6.7,21.5,12.7c9.3,10.7,16.5,23.4,24.2,35.4
		c1.4,2.2,1,5.5,1.4,8.2c2.2-1.8,4.4-3.5,6.6-5.3c-1.7-5.6-4.3-11.2-5.1-16.9c-3.4-25.4-17.7-42.1-40.1-53.1
		c-18-8.8-32.6-19.5-35.1-42.5C546.5,239.7,520.2,224.5,501.2,230.8z M442.2,328.8c-1-0.3,0.9,0,2.7,0.7
		c11.2,4.4,17.1,1.8,22.6-10.4c4.4-9.7,15.3-16.6,23.6-24.5c3.7-3.5,8.2-6.3,12.4-9.4c-0.5-1-1-2-1.6-3c-7.8,2.6-15.6,5.2-26.5,8.7
		c5.1-7.5,8.7-12.8,12.3-18c-0.7-0.7-1.3-1.4-2-2.2c-8.7,6.2-17.4,12.4-25.1,17.9c-2.9-3.6-6.4-6.9-8.5-10.9c-1.3-2.5-2-7.3-0.6-8.9
		c8.4-9.1,2.8-16.3-2.8-25.7C434.9,271.3,420.8,297.5,442.2,328.8z M512.4,386.5c18.3,7.9,45,4.4,54.9-6.8c4.5-5,9-14.7,7.1-19.9
		c-7.1-19.2-16.7-36.9-38-45.8c-24.3-10.2-44.8,2.5-47.2,19.2c-1.2,7.9-2,15.8-2.9,23.6c5.4-2.8,9.8-6.8,12.7-11.7
		c11.9-20.6,27.4-22.9,45.8-15.3c6.8,2.8,12.6,12.5,15.1,20.3c2.7,8.4-4.1,14.4-12.5,17.3c-5.4,1.9-10.9,3.8-15.9,6.5
		C525.6,377.2,520.2,381.3,512.4,386.5z M358.4,464.3c23.8,22.4,24.1,22.7,42.4,4.9c5.3-5.1,7.3-13.6,12.7-18.5
		c13.6-12.6,13.7-16.4-2.1-26.9c-1.9-1.3-3.9-2.3-7.5-4.4C389.1,433.9,374.1,448.8,358.4,464.3z M463.9,374.6
		c-6.1-5.7-10.9-10.8-16.3-14.9c-1.9-1.4-6.5-1.9-8.1-0.6c-6.3,5.2-11.8,11.3-17.6,17.1c-8.4,8.5-16.8,17-27.2,27.4
		c6.4,4.1,13.3,8.6,20.3,12.9c1.2,0.7,3,0.9,4.4,0.8c1-0.1,2.1-1,3-1.8C436.1,402.2,449.6,388.7,463.9,374.6z M362.1,437.7
		c1.2,1,2.3,2.1,3.5,3.1c4.4-2.4,9.2-4.3,13-7.4c12.7-10.2,9.4-24.2,8.6-37.8c-0.6-11.2-3.2-18.5-16.6-16.4
		c-2.9,0.4-6.1-1.9-8.5-2.8C362.1,396.6,362.1,417.1,362.1,437.7z M314.9,351.9c12.7,9.2,23.3,16.8,36.3,26.1
		c-0.1-11.5,2.8-14.9,10.9-12.3c1.2,0.4,6.6-6,6-7.3c-2.1-4.3-5.3-8.7-9.3-11.3c-8.9-5.8-18.6-10.5-28.9-16.2
		C325,337.7,320.2,344.5,314.9,351.9z M429,428.4c15.7-4.7,29.4-10.5,43.7-12.6c17.4-2.5,20.7-5.3,17.2-24.1
		c-23.9,5.8-51,4.7-63.5,33.1C427.1,425.9,428.9,428.4,429,428.4z M593.6,687.9c1.6-9.7,3.7-16.2,3.5-22.6c-0.1-4-3-10.3-6-11.2
		c-7.4-2.3-15.7-3.6-23.2-2.4c-3.8,0.6-6,8.3-9.8,11.8c-6.7,6.1-4.3,10.9,2.1,13.6C570.3,681.2,581.1,684,593.6,687.9z M608.4,423.1
		c6.7-5.3,11-10.5,16.4-12.5c9.2-3.4,9.2-9.6,8.2-17.1c-1.1-8.3-7.3-10.7-14.1-11.3c-6.9-0.7-14-0.1-23.9-0.1
		C599.7,396.5,603.8,408.9,608.4,423.1z M571.8,607.8c-0.8,3.1-1.9,5.4-1.9,7.6c0.1,7.4-0.7,15.2,1.5,22c1.4,4.3,7.7,10.3,11.3,10
		c5.1-0.5,13.5-5.8,13.7-9.5c0.6-9.9-1.1-20.5-4.9-29.7C590.5,605.8,578.8,607.8,571.8,607.8z M704.6,387.5
		c-2.3-7.7-3.9-14.4-6.4-20.8c-0.9-2.4-4.8-6-5.6-5.6c-11.1,5.5-22.1,11.2-32.6,17.7c-1.9,1.2-2.4,6.5-1.6,9.4
		c0.5,1.8,4.9,3.7,7.3,3.5C678.7,390.7,691.7,389,704.6,387.5z M395.3,325.7c-2.2,9.2-6.9,17.9-5.4,25.3c1.5,7.9,8.8,14.7,15.1,24.2
		c5.7-17,10.4-30.9,15.2-45.1C411.4,328.6,404.5,327.4,395.3,325.7z M518.1,639.4c32.8,18.9,38.1,18.6,41.6-0.7
		c-12.4-6.2-24.6-12.2-37.5-18.6C520.9,626.8,519.6,632.8,518.1,639.4z M619.8,672.9c1.2-0.7,2.3-1.3,3.5-2c1.6-9-3.3-19.6,7.1-26.5
		c0.9-0.6-0.2-7.1-2.1-8.5c-4.8-3.5-9.9-7.5-16.7-1.5c-5.8,5.1-10.8,9.8-6.4,17.5C609.5,659.3,614.9,665.9,619.8,672.9z
		 M698.1,642.2c-0.3-0.8-0.6-1.7-0.9-2.5c-16.2,3.4-32.4,6.8-48.8,10.3c6.3,14.7,15.1,20.3,22.7,14.7
		C680.5,657.6,689.2,649.7,698.1,642.2z M654.5,616.4c-4.7,3.7-8.5,6.2-11.7,9.4c-2.2,2.2-5.7,6.6-4.9,7.8c1.9,3.2,5.9,7.2,9,7.1
		c7.4-0.2,14.7-2.6,24.4-4.6C664.1,627.8,659.2,622.1,654.5,616.4z M635.9,652.7c-3.9,11.9,5.5,26,16.1,25.7c1.6,0,3.8-1.5,4.4-2.9
		c0.6-1.4,0.3-4.3-0.8-5.3C649.4,664.3,642.8,658.7,635.9,652.7z M553.3,628c-10.7-21.5-17.4-24.5-27.8-14.5
		C534.9,618.4,544.1,623.2,553.3,628z M573.1,600.2c-4-5.6-5.8-8.2-7.7-10.7c-5.1,4.5-11.5,8.2-14.6,13.7c-1.4,2.5,3.8,8.6,6.1,13.1
		C562,609,555.4,597.9,573.1,600.2z M351.4,334.7c7.4,3.3,14.7,6.6,23.4,10.5C362.5,325.3,359.3,323.9,351.4,334.7z M378.3,351.3
		c-3.1,16.3,3.9,22.4,16.7,18.3C389.8,363.9,384.9,358.6,378.3,351.3z M649.5,400.1c1.3-1.4,2.6-2.7,3.9-4.1c-3-4.1-6-8.1-9-12.2
		c-1.3,2.8-4.3,6.4-3.5,8.1C642.7,395.2,646.5,397.4,649.5,400.1z"/>
	<path d="M335.9,378.9c3.6,24.6,7.3,49.1,11.2,75.4c-20.1,0-36.6,0-53.1,0c-0.1,0.7-0.3,1.4-0.4,2.1c7.8,3.3,15.9,6.1,23.4,10
		c11.5,6,23.2,12,34,19.3c25.4,17.1,38.6,42.1,46.1,71.3c4.4,17.3,18.4,27.3,34.5,33.3c15.2,5.7,32,8.7,39.4,25.8
		c1.7,3.9,1.3,8.8,1.8,13.2c-3.7-0.5-7.3-1-11-1.4c-5.5-0.6-11.1-2.1-16.6-1.7c-40.4,3.4-61.3-17-73.3-49.3
		c-9.9-26.6-24.4-48-47.5-62.4c-24.3-15.1-51-23.1-80.7-19.4c-32.3,4-56.6-8.2-76.8-35.2c-15.8-21-15.5-42.6-14.2-65.3
		c1.1-19.1,19.3-41.6,40.6-40.2c3.7,0.2,7.4-1.2,11.5-4.3c-2.6-0.9-5.1-2.4-7.8-2.7c-19.5-2.2-28.7-14.5-32.8-32.4
		c-1.9-8.4-6.2-16.6-6.4-25c-0.1-7.2,2.2-16.1,6.8-21.3c5.5-6.2,12.8-8.7,23.7-3.9c19.5,8.5,38.2,17.5,54.1,31.8
		c4.3,3.9,8.6,7.9,12.4,12.2c17.2,19.4,36.8,37.4,50.5,59.1c9.3,14.7,19.9,10.4,31.1,11.5C336.3,379.3,335.9,378.9,335.9,378.9z
		 M466.2,622.4c-10.3-15.6-21.4-24-37.6-24.6c-2.9-0.1-6-1.8-8.7-3.3c-17.2-9.5-28.1-24.1-33.8-42.9c-3.2-10.5-5.1-22.5-11.4-30.9
		c-16.1-21.5-36.5-39-61.6-49.2c-11.8-4.8-24.8-8.1-37.5-8.9c-11.5-0.7-23.2,4.4-34.9,4.6c-10.7,0.2-22.1-1.1-32.2-4.8
		c-19.8-7.2-29.1-22.6-30.6-44c-1.1-15.8,1.1-21.6,16.1-27.2c2.1-0.8,4.3-2,5.9-3.6c4-4,6.9-4.5,10.1,1.1c1.6,2.8,5.1,4.5,7.9,6.8
		c9.9-8.1,9.9-16.5,2.5-26.1c-6.2,2.4-12.8,6.4-15.6-4.1c-0.4-1.3-3.8-2.5-5.8-2.6c-11.7-0.6-22.2,2-29.1,12.5
		c-13.6,20.8-17,43.3-6.2,65.6c14.4,29.6,36.2,49.6,72.5,46.8c34.4-2.7,66.7,3.2,95.6,23.6c16.3,11.5,31.7,23.6,39.4,42.9
		c6.8,17.1,12.3,35,25.7,48.4c4.8,4.8,10.3,10.6,16.4,11.9C429.8,618.1,446.7,619.6,466.2,622.4z M330.5,382.8
		c-12.9,4.2-21.4,5.1-29.6-5.8c-23-30.5-46.5-60.9-77.1-84.5c-3.9-3-9.9-3.2-14.9-4.8c-0.1,5.5-2.6,12.8,0,16.1
		c16.5,21.1,33.9,41.5,51.3,61.8c13.5,15.7,27.5,30.9,41.1,46.5c10.8,12.4,21.3,25.1,32,37.7c1.2-0.8,2.4-1.6,3.7-2.3
		C335,426.7,332.9,405.9,330.5,382.8z M239.6,377c-1.6,0.1-3.2,0.1-4.8,0.2c-1,4.2-2,8.4-3.1,12.6c-2.6,9.4-17.8,16.2-26.8,12
		c-11.8-5.5-22.1,0.9-21.2,13.9c0.4,6,2.6,12.1,5.2,17.7c1.5,3.3,5.2,5.6,7.9,8.3c1.5-3.6,3.4-7.1,4.4-10.8c0.5-2-0.4-4.5-0.9-8.1
		c9.2-1.8,18.1-3.1,26.6-5.5c3.4-1,8.3-3.9,8.8-6.7C237.8,399.6,238.5,388.3,239.6,377z M200.4,446.6c7.6,14.6,43.9,14.5,64.7,8.4
		C241.8,452,221.4,449.3,200.4,446.6z"/>
	<path d="M629.6,552.7c-20.2,2.7-28.2,16-34.1,29.9c-2.8,6.7-6.4,9.2-10.9,5.7c-3.9-3.1-7.9-10.2-7-14.4c1.4-6.3,7.3-11.6,11-17.5
		c4.2-6.5,8.3-13.1,12-19.9c0.7-1.3,0-3.6-0.6-5.3c-7.9-20.7-2.2-36.4,17.2-47.1c2.9-1.6,5.5-3.9,9.8-7c6.3,20.6,19,38.4,10.6,63
		c15.7-9,30.3-14.8,38.1-29.7c0.2-0.4,0.3-0.8,0.6-1c4.5-4.8,9-9.6,13.5-14.4c5.3,7.5,12.2,14.4,15.4,22.7c3.6,9.3-1.3,18-7.8,25.7
		c-13.9,16.2-27.2,32.9-41,49.2c-6,7.1-12.4,13.8-19.2,20.1c-1.9,1.7-7,2.6-8.7,1.4c-9.4-6.8-18.5-14.1-27-21.9
		c-1.6-1.4-1.3-7.3,0.3-9.3C610.2,572.9,619.4,563.6,629.6,552.7z M609.5,547.5c19.9-3.4,27.3-20.3,19.4-40.9
		c-1.8-4.7-7.4-11.5-11-11.3c-7.6,0.3-11.6,7-11.1,15.2C607.7,522.5,608.6,534.6,609.5,547.5z M662.5,575c-2.5-3-3.8-5.6-5.9-7
		c-6.1-4.1-12.3-10.4-18.7-10.7c-4.4-0.2-10.3,7.4-13.4,12.7c-0.8,1.4,6.3,7.5,10,11.2c1.9,1.9,3.9,3.9,6.3,4.9c2.5,1,6.3,2,8.1,0.8
		C653.7,583.8,657.6,579.4,662.5,575z M607.3,590.1c6.8,5,12.7,10.1,19.4,13.7c2.1,1.1,7.2-1.2,9.4-3.4c1.9-1.9,3.1-6.9,1.9-8.8
		C630.7,579.9,617.3,579.1,607.3,590.1z M644.6,548c20,17,25.2,18.9,29.4,12.7c2.9-4.3-3.8-18.4-12.3-20.8
		C657.6,538.8,651.6,544.5,644.6,548z"/>
	<path d="M917.4,405.8c-12,7.6-23.6,14.6-34.6,22.4c-2.2,1.5-6.4,3.5-3.4,9.8c3.7,7.8,3.3,17.5,4.7,26.3c-1,1-2.1,1.9-3.1,2.9
		c-5.7-2.4-12.8-3.5-16.7-7.5C851,445.7,836.9,432,827,415.8c-6.3-10.2-6.3-24.6-8.1-37.2c-0.3-1.9,5.1-6.6,7.5-6.3
		c6.1,0.7,12.3,2.8,17.8,5.6c8.3,4.4,15.2,10.4,22.9-1.8c3.1-5,10.4-8.5,16.5-10.2c3.8-1.1,10.9,1.2,13,4.3
		C904,381,909.9,392.7,917.4,405.8z"/>
	<path d="M548.5,694.9c-3.8-3.1-8.5-5.6-11.1-9.5c-15.1-22.8-37-31.7-63.3-32.5c-20.3-0.6-40.6-1.2-60.9-1.7
		c-14-0.4-23.4-9.6-30.8-19c-13-16.4-27.2-33.1-34.7-52.1c-12.7-32.4-42.7-41.2-68-56.1c-15.8-9.3-33.5-3.3-44.1,10.4
		c22.6-12.6,42.3-5.2,60.7,7.4c29.6,20.3,50.5,47.8,67.1,79.8c11.5,22.2,28.3,39.8,57.9,39.5c21.3-0.3,42.8,2.8,63.8,7
		c14.1,2.8,27,10.6,32.9,26.5c-3.1-1.7-7.2-2.7-9.1-5.3c-11-15.5-28.9-16.1-44.6-18.9c-17.5-3.1-35.8-1.7-53.7-2.7
		c-22-1.1-35-16.5-46.4-32.2c-11.3-15.6-18.6-34.2-29.9-49.9c-8.2-11.4-19.1-21.3-30.3-29.9c-10.3-7.9-22.1-14.9-34.3-18.9
		c-18.5-6.1-28.1,0-32.9,17.1c-14.3-7.1-16.3-16.4-5.9-27.1c13.3-13.5,27.8-16.1,47.9-9.5c24.4,8,43.6,23.2,62.9,38.6
		c5,4,7.3,11.4,10.4,17.5c3.6,7,5.4,15.4,10.4,21c12.8,14.5,20.8,33.7,39.1,42.6c9.9,4.8,20.7,9.5,31.4,10.5
		c12.3,1.2,25.1-1.1,37.5-3.1c17.2-2.8,56.9,13.7,66.8,28.5c4.3,6.4,8.9,12.6,13.4,18.9C550,692.9,549.2,693.9,548.5,694.9z"/>
	<path d="M309.3,52.3c7.3,8.4,16.1,16,21.4,25.6c6.2,11,12.9,12.6,23.2,7.1c1.8-0.9,4.4-0.1,7.6-0.1c-3.9,11.8-14.8,11-22.6,12.5
		c-3.3,0.6-10-6.6-12.2-11.6c-8.8-20.4-31.7-36.2-53.5-35.2c-4,0.2-7.8,2-15.6,4.1c10.8,12,19.5,21.4,27.7,31.1
		c8,9.5,15.4,19.6,23.3,29.2c17,20.6,29.4,44.1,40.4,68.2c6,13.3,9,27.9,13.3,42c-2.2,0.8-4.4,1.5-6.6,2.3c-1.7-5.3-3.4-10.6-6.1-19
		c-20.7,18.7-45.8,20.8-71.4,21.2c-0.3-1-0.6-2.1-0.9-3.1c6.4-1.5,13.5-5.6,19.1-4.1c12,3.2,20.6-3.6,30.3-7
		c7.3-2.6,14.3-5.9,23.5-9.7c-1.4-3.3-4-9.2-7.3-16.7c-4.4,1.7-8.7,3.4-12.9,5.1c-2.1,0.9-4.6,3-6.3,2.5c-17-5.6-33.5,1.1-51.6-0.2
		c3.1-2.1,6-5.6,9.4-6.2c14.3-2.3,28.7-4,43.2-5.2c11.2-0.9,14.5-4.2,9.7-13.8c-6.5-12.9-13.9-25.3-21.8-37.4
		c-1.7-2.7-7-4.2-10.6-4.3c-12.6-0.3-25.3,0.2-37.9,0.6c-7.5,0.2-15,0.7-25.1,1.3c19.9-16.8,42-3.7,61-9.6
		c-0.5-13.7-16.1-28.5-29-27.7c-10.3,0.6-20.8-0.1-30.9,1.8c-11.1,2.1-21.7,6.3-32.5,9.7c-10,3.1-19.9,6.9-30,9.4
		c-10.3,2.5-20.8,3.9-31.7,3.2c20.9-7.1,41.4-15.5,62.6-20.9c21.7-5.5,44.1-8.2,67-12.3c-4-3.6-9.1-8.3-14.3-12.8
		c-5.7-5-10-10.5-7.3-18.6c2.9-8.7,9.5-13,18-11.7c8.2,1.3,16,4.8,24.1,7.2c4.5,1.4,9.2,2.5,13.7,3.7
		C309.7,52.8,309.3,52.3,309.3,52.3z"/>
	<path d="M405.5,174.4c-20.5-31.9-39.1-62.6-24.4-103.8c2.7,4.8,4.6,8.6,7,12.1c4.4,6.7,6.3,16.6,18.8,7.4c6.6-4.9,17.4-4.3,26.3-6
		c2.7-0.5,5.6,0,8.3-0.5c4.8-1,12.4-4.9,13.6-3.4c5,6.3,9.1,13.8,11.6,21.5c4.6,14.6-1.2,23.7-15.5,27.7
		c-11.6,3.2-23.4,6.2-34.6,10.7c-2.7,1.1-3.5,7.7-4.4,11.9C410.5,159,415.6,167.8,405.5,174.4z"/>
	<path d="M805.8,394.7c-13,9.1-24.2,16.9-35.2,24.7c-14.1,10-27.7,20.6-42.1,30.1c-15.1,10-31.1,18.5-46.1,28.6
		c-3.6,2.4-5.5,8.3-6.9,13c-3.6,12.1-10.7,19.5-22.8,20.3c-3.8-7.3-7-13.9-10.7-20.2c-4.5-7.8,6.8-34.7,19.9-37.2
		c29.2-5.5,50.2-25.3,73.8-40.7c15.8-10.3,31.7-20.4,47.8-30.3C796.5,375,805.5,378.8,805.8,394.7z M697,449.5
		c0.7,1.2,1.5,2.4,2.2,3.5c13.8-0.9,92-53.4,95.6-66.9C760.8,408.2,728.9,428.8,697,449.5z M677.6,462.6
		c-16.9-3.3-32.4,13.4-27,28.7c0.9,2.5,5,5,7.9,5.4c2.4,0.4,6.6-1.7,7.5-3.8C670.4,483,673.9,472.8,677.6,462.6z"/>
	<path d="M492.7,159.8c-1.1,8.4-1.5,16.9-3.5,25.1c-0.7,2.9-5,6.4-8.1,6.9c-3.9,0.6-8.3-1.6-12.5-2.5c1.2-3.3,3-6.4,3.6-9.8
		c1.8-10.8,3-21.7,4.9-32.5c0.5-3.1,3.2-5.9,3.8-9c3.3-17.3,18.2-21.2,31.1-27.5c0.3-0.2,0.9-0.2,1.2,0c15.4,9,35.6,8.4,47.9,23.3
		c14.9,18.2,32.5,17.5,45.8-1.5c2-2.9,8.4-4.6,12.2-4c3.5,0.6,6.3,5.2,9.4,8c-3.2,3.4-6.3,7-9.8,10.1c-1.6,1.4-5.9,1.5-6,2.4
		c-1.4,15-16,14.1-24.4,20.3c-1.4,1.1-5.2,0.2-7.2-1c-5.9-3.4-11.6-7.2-17-11.3c-7.9-5.9-15.6-12.1-23.1-18.5
		c-10.5-8.9-23.6-13.3-34.8-6.3c-8,5-11.6,17-17.2,25.9C490.1,158.5,491.4,159.2,492.7,159.8z"/>
	<path d="M636.1,306.7c-7-3.4-14.1-6.2-20.5-10.1c-13.2-7.9-26.4-15.9-38.8-24.9c-10.1-7.3-10.8-16.8-3.8-26.9
		c1.3-1.9,3.2-3.5,4.3-5.5c9.6-17.6,19.2-20.6,35.2-9.7c12.8,8.6,25,18.1,37.5,27.2c1.5,1.1,3.1,2.1,4.8,2.8
		c11.5,5,13.6,11.3,6.6,21.6c-4.5,6.7-9,13.5-14.3,19.6C644.8,303.4,640.6,304.3,636.1,306.7z M652.1,277.3
		c-2.3,1.1-5.2,1.7-6.8,3.5c-8.6,9.6-18.1,8.4-27.8,2.4c-5.8-3.6-10.8-8.5-16.8-11.7c-8.6-4.6-14.6-10.3-14.5-22.2
		c-4,2.1-8.6,5.1-8.4,7.8c0.2,4.2,2.6,9.9,5.9,12.2c12.1,8.5,25.1,15.5,37.4,23.7c11.4,7.6,20,5.7,26.1-6.5c1.5-3.1,3.1-6.2,4.6-9.3
		c4.3-4.7,5.6-7.7-1.6-12.3c-18.7-12-36.5-25.3-56.1-39.1c-2,9.3-4.4,15.2,5.8,16.8C622.5,246.3,636.7,262.7,652.1,277.3z"/>
	<path d="M741,332.5c3.2,1.6,5.9,2.9,8.6,4.3c12.9,6.7,14.2,5.3,20.4-8c4.9-10.6,11.8-20.5,19.4-29.4c4-4.7,10.8-7.8,17-9.8
		c13.9-4.5,28-9.3,42.4-11.1c13-1.6,21.9,7.4,25.5,20.8c0.1,0.4,0.2,0.8,0.3,1.2c7,32.1,0.4,37.4-24.7,52.2
		c-21.4,12.6-46,15.3-70.9,11.1c-12.4-2.1-13.1,9.6-15.2,16.4c-2.8,9.2-3.8,11.4-12.8,5c-7.4-5.3-17.4-6.7-25.9-10.6
		c-2.3-1.1-3.3-5.1-4.9-7.8c12.9-6.9,14-20.6,18.7-32.2C738.9,333.8,739.8,333.4,741,332.5z M872.3,307.5c0.5-10.8-9.2-22-21.6-21.2
		c-11,0.7-21.6,5.6-32.5,8.4c-15.7,4.1-28.5,12.4-35.7,27c-3.9,8-8,18.1-6.2,25.8c1.1,4.7,13.6,10,20.6,9.4
		c15.4-1.3,31.5-3.8,45.5-10C858.3,339.8,872,328,872.3,307.5z M763.5,355c-6.1-3.1-11.8-6-16.6-8.4c-3.6,4.7-6.7,7.8-8.6,11.5
		c-1.9,3.7-2.7,7.9-4,11.9C756.6,378.3,758.6,377.4,763.5,355z"/>
	<path d="M582.8,393.3c12.6,10.9,15.5,39.5,2.9,51.4c-7.3,6.9-8.8,14.2-7.6,23.3c2.7,21.6,4.9,43.2,7.7,64.7
		c0.8,6.2,2.7,11.8-6.8,13c-9.1,1.2-13.9-2.9-15.2-11c-1.3-7.8-1-15.9-1.7-23.8c-1.1-13.9-1.6-27.9-3.8-41.6
		c-1.6-9.8-3.6-20.7-9-28.6c-12.2-18.1,1.7-34.6,17.2-39.7C571.9,399.2,576.8,396.2,582.8,393.3z M578.5,408.6
		c-2.5,0.3-4.1,0.4-5.6,0.7c-20.5,4.1-24.2,13.7-11.6,30.2c0.9,1.2,1.9,2.5,2.1,3.9c2.1,13,4.1,25.9,6.2,38.9
		c0.9-6.4-0.5-12.7-0.2-19c0.3-6.4-0.1-14.7,3.5-18.9C587.8,427.7,588.3,428.1,578.5,408.6z"/>
	<path d="M788,629.8c-10.7-5.1-23.5-8-31.4-15.8c-9.4-9.2-17.7-4.3-25.9-2.6c-13.5,2.8-26.5,8.4-39.8,12
		c-9.6,2.6-14.8-2.4-16.4-11.8c-1.6-8.8,1.6-12.2,10.8-14.2c20.1-4.3,39.7-10.7,59.4-16.6c2.5-0.7,4.9-3.5,6.2-5.9
		c2.9-5.4,4.6-11.5,7.5-16.9c5.9-11.2,16.8-13.3,28.3-8.1c11.8,5.3,24.1,9.7,29.5,22.5c5,11.8,11.1,24.5,3,37.2
		c-6.7,10.6-15.3,19.3-29.8,17.2C788.9,627.7,788.5,628.7,788,629.8z M684.4,604.5c-2.4,12.2,4.5,11.1,10.3,9.7
		c17.6-4.3,35-9.3,52.6-13.5c3.2-0.8,8.8-0.5,10.1,1.5c6.5,9.6,15.4,13.2,26.3,15.9c11.9,2.9,28-3.9,29.6-15.6
		c2.9-21.5-5.4-37.2-26.2-45.5c-16-6.4-22.9-2.1-26.3,14.5c-2.3,11.5-12.7,22-23.9,24C719.3,598.5,701.6,601.5,684.4,604.5z"/>
	<path d="M540.9,83c-7.1,0.4-14.3,1.4-21.3,0.9c-12.6-0.9-20.4,6-27.7,14.6c-2,2.4-4.6,4.3-6.9,6.4c-2.3-3.8-7.1-8.1-6.5-11.4
		c3.9-19.9,8.3-39.8,14.2-59.2c2.1-6.9,8.8-12.3,13.4-18.4c1.3,0.7,2.6,1.3,3.9,2c0.7,4.6,2.3,9.2,1.8,13.7
		c-1.3,12.7,6.3,19.9,14.5,27.5c6.7,6.2,12.2,13.8,18.2,20.7C543.3,81,542.1,82,540.9,83z"/>
	<path d="M262.5,182.8c-3.1,5.8-5.6,16.1-9.3,16.6c-6.4,0.8-14.6-3.2-20.3-7.4c-16.6-12.4-27.4-28-23.9-50.5
		c1.9-11.9,5-14.6,16.5-9.9C241.5,138,261.9,162.5,262.5,182.8z"/>
	<path d="M108.3,619c0.3-20.9,26.3-36.7,46.6-27.7c6.1,2.7,12.1,5.6,18,8.4c2,1,5.4,2.1,5.5,3.4c0.9,12.8,12.6,13.8,20.3,19.3
		c2.5,1.8,6.1,5.5,5.6,7.5c-2.6,11-8,27.9-17.3,26c-23.9-5-51.7,8-71.7-12.8C110.1,637.7,110.5,627.1,108.3,619z M118.5,623.1
		c-0.1,14.7,16.9,28.3,31.5,25.1c1.7-0.4,3.8-1.5,4.6-2.9c6.2-10,12.5-20.1,18-30.5c0.9-1.6-1.2-6.4-3.2-7.6
		c-5.9-3.6-12.4-6.4-18.8-9C133.2,591.3,116.6,605.5,118.5,623.1z M185.2,625c-11.5,0-18.7,11.9-13.2,20.9c0.8,1.3,3.5,2.5,4.8,2.1
		c1.7-0.5,3.7-2.5,4.2-4.3C182.6,637.7,183.8,631.5,185.2,625z"/>
	<path d="M767.9,527.1c-23.2,7.4-53.9-6.2-62-27.6c-2.5-6.6-2.9-14-4.2-21c8.4-0.5,17.2-2.7,25.3-1
		C750,482.2,769.5,502.4,767.9,527.1z M753.1,504c-4.2,5.4-7.5,9.7-10.8,14c5.6,1.3,11.1,2.6,16.7,3.8c0.6-1,1.2-2,1.8-3
		C758.4,514.3,756.1,509.7,753.1,504z"/>
	<path d="M836.4,588.1c-5.4-15.1-12.3-29-15-43.7c-2.2-11.7,8.7-22.2,19.8-23.4c18.6-2,27.9,4.2,33.5,17.4
		c4.4,10.3-3.7,16.8-18.7,15.6c-0.3-0.6-0.8-1.2-0.9-1.9c-0.6-3.8-1-7.6-1.5-11.4c-1.9,0.3-5.4,0.7-5.4,0.9
		c0.2,4.6-0.9,10.6,1.6,13.4c9.3,10.4,16.3,21.9,11.4,35.6c-3.1,8.8-10,16.7-16.7,23.4c-1.4,1.4-10.1-3.7-14.6-6.9
		c-1.3-0.9-0.8-5.9,0.3-8.4C831.9,594.3,834.8,590.5,836.4,588.1z M841.6,607.2c8.4-10.7,15.9-19.2,12.4-30.5
		c-2.2-7.1-7.6-13.4-12.1-19.7c-6.4-9.2-5.6-15.6,3.4-22.9c1.5-1.2,2.5-3,4.4-5.5c-20.9,3.8-26.3,17.1-16.3,33
		c7,11.1,17.6,22.4,6.8,37.3C839.6,600,840.8,602.5,841.6,607.2z"/>
	<path d="M772.7,442c12.2,6.8,25.3,13.9,38.1,21.6c1,0.6,1,5.4-0.2,7c-12.2,16.4-37.3,21.6-55.2,11.5c-4-2.3-8.1-4.8-11.2-8.1
		c-11.8-13.1-9.8-19.6,7.2-24.9C757.6,447.2,763.7,445,772.7,442z"/>
	<path d="M700.4,411.5c-33.2,23.8-66.3,47.5-99.4,71.3c-9.4-9-10.2-17-1.1-24.6c18.8-15.5,37.5-31.3,57.6-45.1
		c11.7-8,26.3-9.5,40.6-5.8C698.8,408.7,699.6,410.1,700.4,411.5z M633.8,444.1c15-8.7,29.9-17.4,44.9-26c-0.6-0.9-1.1-1.8-1.7-2.6
		c-17.6,4.7-32.3,13.7-43,28.9c-11.3,6.9-24,12-30.4,24.6c0.8,0.9,1.6,1.8,2.4,2.7C615.4,462.5,624.6,453.3,633.8,444.1z"/>
	<path d="M82.7,541.2c4.3-4.1,8.1-10.5,13.5-12.3c17.6-5.8,35.7-10.3,53.8-14.4c3.8-0.9,8.9,1.1,12.5,3.4c6.9,4.4,16.3,1.6,22,11.1
		c7,11.5,7.9,16-2.4,24.8c-3.6,3.1-4.9,9-8.6,11.7c-15.3,11.5-33.6,15.1-52.1,18c-3.1,0.5-7.3-0.4-9.3,1.3c-8.5,7.2-14.4-1.9-16-5.2
		C90.6,568.6,87.7,556.2,82.7,541.2z M156.7,522.3c-14.4,2.7-31.9,4.6-48.5,9.4c-16.2,4.7-17.3,8.5-12.9,25.5
		c1.9,7.3,5.7,14.1,8.7,21.1c11.4,0.8,56.6-9.4,64.1-15.1c1.8-1.4,2.9-5.8,2.1-8C166.7,545.3,162.3,535.7,156.7,522.3z M179.6,528.9
		c-12.8,0.5-10.8,7.5-9.7,12.8c0.4,1.7,5.2,2.5,8.1,3.7C178.4,540.4,178.9,535.3,179.6,528.9z"/>
	<path d="M195.1,696.2c-8-2.8-14.7-5.3-21.4-7.4c-3.1-1-8.6-2.6-9.5-1.3c-7.6,10.1-18.3,5-27.6,6.3c-2.6,0.4-6.4-1.1-8.3-3
		c-9.4-9.5-11-9.4-18.7,5.9c-1.3-5-3.3-8.5-2.3-9.8c3-4,6.6-8.4,11-10.4c3.5-1.5,8.6,0.9,12.9,0.5c2.1-0.2,4-2.9,6-4.5
		c-1.9-1.6-3.6-4.1-5.8-4.6c-18.3-4-27.9,3.9-33.5,26.6c-1.5-3-4.3-6-4.3-9c0-20.7,29.1-33.5,46.1-22.5c7.5,4.9,14,6.4,22.9,5.1
		C182,665.1,191.6,673.3,195.1,696.2z"/>
	<path d="M743.9,553.4c1.5,12.8-0.2,20.9-15.5,21.3c-7.1,0.2-14.4,6.8-20.8,11.6c-8.7,6.5-14.8,0.1-20.8-3.8c-1.5-1-0.5-8,1.3-11.1
		c6.2-10.6,12.8-21.1,20.3-30.8c5-6.3,12.3-12.9,20.9-9.2C738.4,535.3,748,541.2,743.9,553.4z"/>
	<path d="M461.7,138.4c7.6,31.3,0.8,56.3-27.2,74.1c-13.7-16.4-16.6-33.8-9.9-52C428.5,149.7,451.5,137.4,461.7,138.4z M440.6,153.7
		c6.6,4.1,10.8,6.6,14.9,9.2c1-0.6,1.9-1.2,2.9-1.8c-2-3.9-3.1-8.9-6.2-11.1C450.3,148.7,445.2,152.1,440.6,153.7z"/>
	<path d="M713.4,210.6c-2.7,6.2-5.8,11.6-7.4,17.3c-5.6,20.5-19.3,24.9-39.3,18.8c-20.5-6.2-34-18-44.6-35.2
		c-1.3-2.1-4.3-3.3-6.8-4.4c-10.6-4.7-13.5-12.6-8.2-22.5c6.6-12.4,10.5-27.1,28.3-29.6c10.6-1.5,17.2,2.6,25.1,8.7
		c10.8,8.5,24.5,13.4,34.9,22.2C703.3,192.5,708,202.9,713.4,210.6z M701.7,212.9c-1.4-5-1.7-10.2-4.1-13.9
		c-5.5-8.2-10.8-16.3-21.6-19.9c-9.6-3.2-17.9-10.3-27.1-15c-7.9-4-22.3-0.7-25.8,5.9c-4,7.6-7.8,15.4-9.9,23.6
		c-0.5,2.1,6,5.8,9.2,8.9c12,11.8,22.9,24.8,36.1,35c12.7,9.8,31.3,6.3,37.9-5.6C699.4,226.3,700,219.3,701.7,212.9z"/>
	<path d="M612.5,77.9c-3.5,1.9-8.4,4.5-13.3,7.1c10,10.5,9,27-2.7,40.3c-6.2,7.1-23.5,5.2-33.6-1.7c-13.5-9.1-19.7-21.2-18.3-36.8
		c1.6-18.2,14.2-34,33.1-28.5c6.1,1.8,7.9-0.4,10.5-5.7c2.4-4.9,6-14.5,14-8.6c5.2,3.9,12.7,9.7,7.7,19.7
		C608.5,66.8,611.3,71.8,612.5,77.9z M584.2,97.5c1.4-6.9,2.1-11.5,3.3-16c2.9-11-8.1-12.3-12.9-17.6c-1.3-1.4-9.4,1.1-12.5,3.9
		c-14.4,12.7-11.2,35.7,5,48.9c7.5,6.1,15.9,8.8,22.4,3.4c6-4.9,8.6-14,12-21.6c0.3-0.6-3.9-4.5-6.2-4.8
		C592.6,93.4,589.6,95.5,584.2,97.5z M603.5,52.1c-2.5-0.3-5-0.7-7.6-1c-0.6,5.4-1.2,10.8-1.4,16.2c0,0.4,3.9,0.9,5.9,1.4
		C601.5,63.1,602.5,57.6,603.5,52.1z"/>
	<path d="M591.4,185.1c-8.7,19.3-17.2,38.3-25.8,57.4c-1.2,0-2.5,0.1-3.7,0.1c-8.9-21.7-29.8-23.8-47.5-31.5c-6.9-3-13-8-18.9-12.8
		c-1.4-1.2-1.3-5.2-0.7-7.6c1.7-7.3,3.6-14.7,6.3-21.7c2.8-7.4,6.2-14.7,10.2-21.5c0.7-1.2,6.1-0.6,8.8,0.5
		c5.4,2.1,10.4,7.4,15.5,7.4c18.8-0.2,31,10.3,42.6,22.9C580.8,180.9,585.1,181.8,591.4,185.1z M508.2,175.8
		C508.2,175.8,508.1,175.8,508.2,175.8c-0.1,3.2,0.2,6.4-0.1,9.6c-1.5,14.4,3.6,21.9,17.4,23.2c11.4,1.1,20.3,6.1,29,13.1
		c2.5,2.1,9.8,2.3,11.8,0.3c4.8-4.9,9-11.2,10.9-17.6c1.7-5.7,2.6-15.5-0.6-18.2c-10.4-8.9-18.5-22.1-34.6-23
		c-5.5-0.3-11.1-2.6-16.4-4.6c-12.6-4.8-16.7-2.2-17.3,11.2C508.1,171.8,508.2,173.8,508.2,175.8z"/>
	<path d="M692.3,169.4c-18.3-15.5-36.8-31.2-55.4-46.8c-4.4-3.7-9.1-7-13.2-11c-5.2-5-4.9-10.5,0.5-15.3
		c12.7-11.2,17.7-10.3,32.9,3.9c15.1,14.2,30.5,28.1,45.9,42c8.9,8.1,10.7,14.5-2.4,22.8C698.2,166.4,695.7,167.5,692.3,169.4z
		 M689.3,157.3c1.8-1.3,3.5-2.5,5.3-3.8c-1.9-4.9-2.5-11.1-5.9-14.5c-8.4-8.4-18-15.4-27.5-23.3c-3.7,3-7.5,6-11.9,9.6
		C663.2,136.4,676.3,146.9,689.3,157.3z M654.6,113.3c0.2-1.3,0.4-2.7,0.6-4c-3.4-3.6-6.2-8.6-10.4-10.3c-3.7-1.6-8.9,0.4-13.5,0.8
		c1.8,4.5,2.4,11.6,5.5,12.9C641.8,114.9,648.5,113.3,654.6,113.3z"/>
	<path d="M414.4,214c-2.3,7.1-4.6,14.3-7,21.4c-6.8-3.8-14.3-6.6-20.1-11.6c-9.5-8.1-14.8-38.6-8.4-49.3c5.1-8.4,12.8-2.6,17.1,1.1
		C407.4,185.2,415.3,197.2,414.4,214z"/>
	<path d="M738,661c4.2-10.1,8-20.4,12.9-30.1c2.8-5.6,7.1-5.8,12.2-0.9c12.6,12,18,32.1,5,47.8c-0.3,0.3-0.5,0.6-0.9,0.8
		c-5.7,3.9-7.7,16.9-16.1,11.7c-5.7-3.5-7-14.4-10-22c-0.7-1.7-0.1-4-0.1-6C740.1,661.9,739.1,661.5,738,661z"/>
	<path d="M711.7,189.5c1.8-7.2,3.1-12.5,4.9-19.4c34.2,1.9,63.9,20,98.1,31c-1.8,5.7-2.3,15-5.7,16.2c-6,2.1-13.9,0.2-20.5-1.8
		c-19.2-5.7-38.2-12.2-57.2-18.6C724.5,194.6,717.9,191.8,711.7,189.5z M800.1,210.3c0.6-2,1.3-4.1,1.9-6.1
		c-15.6-6.4-31.2-12.7-47.6-19.4c-0.4,4.1-0.7,7.5-1,10.9C769.4,200.7,784.7,205.5,800.1,210.3z M721.7,174.7
		c-1,1.3-2.1,2.6-3.1,3.9c3.6,3.6,6.7,9.1,10.9,10.3c6,1.7,14.3,6.6,19.8-4.6C739.7,181,730.7,177.9,721.7,174.7z"/>
	<path d="M840.8,452.6c10.8,7.3,19,12.8,27.3,18.4c6.2,4.2,10,8.6,7.3,17.5c-2.4,7.7-1.7,16.4-2.7,28.4
		c-16.3-4.4-31.5-8.2-46.5-12.8c-1.6-0.5-3-5.8-2.3-8.2c2.3-7.7,5.7-15,8.7-22.4C835.3,466.7,837.9,459.9,840.8,452.6z M845.7,466.7
		c-4.2,24.3,0.4,31.3,20.1,38.1C867.3,478.1,864.9,473.6,845.7,466.7z"/>
	<path d="M163.2,172.9c21.8,0.1,34.8,12.4,34.6,32.6c-0.2,18.5-17,34.5-36.1,34.8c-20.2,0.3-30.8-16.5-32.1-33.7
		C128.2,187.1,143.3,172.8,163.2,172.9z M137.8,206.5c0.2,14.3,12.3,26.9,25.6,26.4c12.6-0.4,27.1-15.2,27.3-27.7
		c0.2-14.8-9.8-25.5-23.7-25.2C146.4,180.5,139.8,189.4,137.8,206.5z"/>
	<path d="M789.9,261.6c9.2-4.5,19.2-8,27.5-13.8c11.8-8.3,24.5-8,37.5-7.4c6.9,0.3,12.1,4.7,10.2,11.7c-1.4,5.3-5.4,12.3-9.9,13.9
		c-12.6,4.7-26.3,6.6-39.3,10.5c-6.5,2-12.3,6-20.5,10.2c-1.9-9.4-3.6-17.4-5.2-25.5C790.2,261.2,789.9,261.6,789.9,261.6z
		 M855.3,257.9c-8.7-11-16.7-11.4-32.4-2.8c2.3,3.4,4.5,6.7,6,9C838,261.9,846.2,260,855.3,257.9z M801.3,268.2
		c0.5,1.1,1,2.3,1.5,3.4c5.8-1.4,11.5-2.8,18.1-4.3c-1.5-4.9-2.5-8.4-3.9-12.8C811.2,259.5,806.3,263.9,801.3,268.2z"/>
	<path d="M140.4,342.6c-11.5-24.4-22.5-47.7-34.2-72.3c1.3-0.3,6.3-3,8.6-1.5c9.1,5.9,22.2,7.6,22.5,23.4c0.1,5.4,6.2,12,11.3,15.6
		c8,5.6,5.8,11.1,2.4,17.3C148.2,330,145.1,334.8,140.4,342.6z"/>
	<path d="M22.1,203.5c11.7-11.6,24.7-21.6,41.5-20.6c20.4,1.2,37-7.9,54.4-15.5c5.3-2.3,11.3-2.7,17-4c0.4,1.2,0.8,2.3,1.3,3.5
		c-6.9,2.7-13.9,5.4-21.8,8.5c-2.3,14.2-17.4,16.1-28.4,21.4c-10.6,5.2-23.2,6-34.4,10.2c-7,2.7-12.9,8.2-19.4,12.4
		c-2.9,1.9-5.8,3.6-9.5,4.2c4.9-13.5,16.5-19.3,28-23.6c12.9-4.9,26.8-7.1,39.8-12.2C67.4,190.9,42.9,188,22.1,203.5z"/>
	<path d="M845.2,692c-9.2,3.4-10.7-3.1-12.7-8.4c-5.5-14.8-16.9-24.1-28.4-33.4c-1.2,0.8-2.4,1.6-3.6,2.4
		c4.2,7.6,8.5,15.1,12.7,22.7c-0.5,0.6-0.9,1.1-1.4,1.7c-4.1-2.2-8.3-4.3-14.2-7.4c5.9,8.1,10.5,14.3,15.8,21.6
		c-8.8,1.1-15.2,2.3-21.6,2.5c-2.2,0.1-4.5-2.3-6.7-3.5c1.7-1.8,3.1-4.6,5.2-5.3c3.3-1.1,7-0.8,13.2-1.4c-4.3-3.4-6.5-5.9-9.3-7.3
		c-8.9-4.4-9.3-9.3-2.1-15.9c1.3-1.2,1.7-5.7,0.5-6.9c-2.6-2.9-6.3-4.7-10.2-7.4c1.6-3,3.2-6,4.8-8.9
		C818.5,642.4,831.8,666.2,845.2,692z"/>
	<path d="M62.6,694.6C61.4,662,50,637.5,32.8,634c-3,20.8-0.9,40.6,11,58.9c-1.3,0.8-2.5,1.7-3.8,2.5c-4.1-4.2-11.1-8-11.7-12.6
		c-2.4-17.4-3.3-35.2-3.3-52.8c0-7.9,7.9-7.6,12.9-5.1c18.9,9.2,33.8,40.1,29.9,61.8C67.2,689.5,64.3,691.9,62.6,694.6z"/>
	<path d="M134.7,114.3c-21.4,8.1-42.8,16.2-64.2,24.2c0.4,1.1,0.7,2.3,1.1,3.4c17.1-4.8,34.3-9.7,51.4-14.5c0.4,1.3,0.8,2.5,1.2,3.8
		c-30.9,10.4-61.7,20.8-92.6,31.2c-0.5-0.6-0.9-1.2-1.4-1.8c2.7-2,5.5-3.9,8.2-5.9c2.8-2.1,5.4-4.4,8.8-7.1
		c-4.5-0.3-8.3-0.5-12.1-0.8c0-0.6,0-1.1,0-1.7c32.4-11.9,64.8-23.9,97.3-35.8C133.1,110.9,133.9,112.6,134.7,114.3z"/>
	<path d="M852.4,667.8c5.1,9.4,9.1,16.8,14.1,26.1c-12.3-1-16.1-9.5-18.4-17c-1.6-5.3,1.1-12,1.9-18c5.2,1.6,10.5,3.2,15.7,4.9
		c4,1.3,8,2.8,13.1,4.5c1.7-5,2.5-9.4,4.6-12.8c1.6-2.7,5-6.1,7.6-6.1c2.6,0,6.5,3.1,7.8,5.8c5.5,11.5,4.6,23.2-0.7,34.6
		c-2.8,6-12.4,5.9-16.1-0.3C875.7,679.2,869.4,669.3,852.4,667.8z M891.4,663.6c-8.3,9.3-8.3,9.3,0.7,21.6
		C890.4,676.7,904.8,671.3,891.4,663.6z"/>
	<path d="M392.3,308.1c-15,3-17.3-0.2-16.9-14c0.4-14.6,6.7-29.9-3.5-44.3c-1.6-2.2,4.1-9.6,8.4-13.8c0.9,7.7,14.3,14.1,0.1,21.4
		c6.8,1.9,11.8,3.4,20.4,5.8c-6.6,2.8-9.9,4.1-15.2,6.3c4.5,4.1,8.4,7.5,13.9,12.5c-6,0.8-9.8,1.4-14.9,2.1
		c4.2,2.4,7.4,4.2,12.9,7.4c-6.4,2-10.5,3.4-15.7,5C385.4,300.5,388.5,303.9,392.3,308.1z"/>
	<path d="M328.6,259.4c13.3,1.2,6.8-7.2,6-15.8c6.7,2.7,11.8,4.7,16.9,6.8c-8.8,16.6-12.8,32.1-0.9,48.4c2.2,3,0.7,8.9,0.2,13.4
		c-0.1,0.6-5.9,1.7-6.8,0.7c-2.5-3-3.9-6.9-5.6-10.5c-1.6-3.6-3.2-7.3-4.5-11c-2.4-6.8-9.2-13.8,0.5-20.6
		C335,270.4,331.3,264.4,328.6,259.4z"/>
	<path d="M110.9,155.6c-1.8-0.4-3.7-0.7-6.9-1.3c11.5-13.5,25-19.4,40.8-22.5c14.5-2.8,28.7-7.9,42.9-12.2c8.9-2.7,17.6-6,26.4-9
		c5.4-1.8,10.9-3.5,16.4-5.2c0.4,1.1,0.8,2.2,1.2,3.3c-8,3.1-15.9,6.4-24,9.3c-20.6,7.2-40.9,15.8-62.1,20.5
		c-10.6,2.4-20.9,3.2-29.4,10.5c-2.2,1.9-3.8,4.6-5.7,7L110.9,155.6z"/>
	<path d="M103.8,285.4c3.7,4.6,6.6,7.5,8.6,10.9c4,6.6,8,13.4,10.9,20.5c1.1,2.5,0.1,7.4-1.8,9.3c-1.9,1.8-6.9,2.6-9.3,1.4
		c-10.1-5.1-18.1-23.6-15.2-34.3C97.8,290.9,100.6,289.1,103.8,285.4z"/>
	<path d="M110.5,156c20.7-5.3,41.3-10.5,62-15.9c4.8-1.2,9.6-2.6,17.5-4.8c-15.5,14.7-30.5,20-48.4,21.3c-12.8,0.9-25.3,7-37.8,10.9
		c-7.2,2.2-14.2,4.8-21.4,7.2c-0.5-1.2-0.9-2.4-1.4-3.5c9.9-5.2,19.9-10.4,29.8-15.6C110.9,155.6,110.5,156,110.5,156z"/>
	<path d="M774.1,494.7c14,5.4,26.4,9,37.3,15.2c2.7,1.5,2.6,13.8-0.5,17.7c-3.6,4.5-9.7,13-19.1,3.9
		C782,522.1,777.2,511.1,774.1,494.7z M788.6,509.9c1.6,9,7.8,17,11.5,14.8c3.3-2,4.8-6.9,8.1-12c-6-0.7-8.7-1-11.4-1.4
		C794.1,510.9,791.5,510.4,788.6,509.9z"/>
	<path d="M818.4,630.6c1.9-2.4,5.4-10.5,10.3-11.5c5.4-1.1,12.7,3.5,18.1,7.2c4.9,3.4,8.2,8.9,12.2,13.5c1.3,1.5,3.5,3.8,3.1,4.7
		c-0.8,1.7-3.1,3.3-5,3.6c-7.4,1.2-14.8,2.1-22.3,2.6C824.3,651.4,818.6,645.8,818.4,630.6z M846.2,639
		c-10.5-17.4-12.2-17.7-22.5-4.7C829.1,644.1,836.4,645.3,846.2,639z"/>
	<path d="M824.4,435.8c-1.6,2.4-3.8,8.4-8.2,11.4c-2.3,1.6-8.4-2-12.5-3.8c-6.4-2.8-12.7-5.8-18.8-9.1c-2-1.1-3.2-3.6-4.7-5.5
		c1.6-1.3,3.1-2.9,4.9-3.9c4.3-2.4,8.8-4.6,13.3-6.9C811.2,411.3,824.7,418.8,824.4,435.8z M797.2,425.7c-0.2,2.1-0.5,4.3-0.7,6.4
		c6.5,2.9,13.1,5.8,19.6,8.8c1.1-1.3,2.2-2.6,3.3-3.9c-1.7-3.8-2.6-9.9-5.2-10.8C809.1,424.5,803,425.7,797.2,425.7z"/>
	<path d="M150.3,101c-8.4-8.6,0.2-16.6,5.7-23.8c6.1-8,15.8-10.4,24.6-5.6c8.4,4.6,12,13,8.3,24.9c-8.7-5.2-7.6-23.5-20.6-16.8
		C160.9,83.5,156.6,93.2,150.3,101z"/>
	<path d="M928.8,252.5c-0.9-0.1-1.8-0.2-2.6-0.3c-1.9-1.9-5.2-3.6-5.4-5.6c-0.9-11.3-8-14.5-17.8-14.5c-10.8,0.1-12.5,7.4-12.6,16.1
		c0,1.4-1.3,2.8-2,4.2c-1.8-11.9-1.7-22.6,13.2-26.6c9.7-2.6,31.9,14.3,30.8,24.3C932.3,251,930,251.7,928.8,252.5z"/>
	<path d="M84.7,158.1c-16.9,14.5-39.8,13.5-58.5,23.4c-0.7-1.8-1.4-3.5-2.1-5.3c19.5-7.2,39.1-14.5,58.6-21.7
		C83.3,155.7,84,156.9,84.7,158.1z"/>
	<path d="M279.3,169.3c4.2-2.1,8.1-5.2,12.5-6.2c8.5-2,17.3-3.1,26-4.2c2.2-0.3,4.6,1.1,6.9,1.7c-1.5,1.7-2.8,4.4-4.7,5.1
		c-6.1,2-12.3,3.7-18.7,4.7c-6.5,1-13.2,0.9-19.8,1.3C280.8,170.8,280.1,170.1,279.3,169.3z"/>
	<path d="M209,259.8c-14.9,5.7-13.1-7-17-11.7c-1.3-1.6,3.5-9.1,6.6-13.1c0.9-1.2,5.4,0.3,8.3,0.6c-1.4,2.2-2.5,4.6-4.2,6.5
		c-0.9,1-2.7,1.2-5.5,2.4C201.2,249.8,204.7,254.3,209,259.8z"/>
	<path d="M246.3,113c10.9-13.1,24.9-4.4,37.6-5.3C272.4,116.4,258.7,110.2,246.3,113z"/>
	<path d="M317.1,155.2c-12.8,0-24.5,0-36,0C287.6,146.3,304,146.1,317.1,155.2z"/>
	<path d="M292.9,243c9.1-3.3,18.3-6.6,27.5-9.6c1.1-0.4,3,1.5,4.5,2.3c-0.9,1.4-1.6,3.9-2.8,4.2c-9.4,2.4-19,4.3-28.5,6.4
		C293.3,245.2,293.1,244.1,292.9,243z"/>
	<path d="M490.5,436.3c0.2,2.3,0.7,5.8,0.9,9.4c0.8,21.5,1.4,43,2.4,64.4c0.5,11.2-4.1,20.2-12.8,25.9c-3.8,2.5-12.3,2.5-16-0.2
		c-10-7.1-15.8-17.3-19.9-29.7c-4.7-14.1-2.2-26.1,3.1-38.2c2.6-5.8,7.7-11.2,13-15C470,446.9,479.9,442.2,490.5,436.3z M482,448.9
		c-9.3,7-19.1,11.8-25.1,19.6c-11.4,14.8-8.2,36.9,2.2,51.9c8.7,12.6,19.7,14,23.2,3c2.9-9.4,1.5-20.2,2-30.4
		c-1.6-0.2-3.2-0.4-4.8-0.6c-2.5,6.6-5,13.2-7.5,19.8c-1.3-0.5-2.6-1-3.9-1.5C462.9,488.9,489.4,474.6,482,448.9z"/>
	<path d="M544.7,557.8c-4.4,9.4-7.4,20-13.9,27.7c-2.9,3.5-12.7,1.2-19.4,1.6c1.2-7.2,0.1-16.7,4.3-21.2c5.8-6.2,15.6-8.7,23.8-12.8
		C541.2,554.7,543,556.2,544.7,557.8z"/>
	<path d="M806.3,591.6c-0.3,13.1-6.5,18.7-20.5,18.6c-14.8-0.1-24.2-9.8-23.7-24.5c0.4-12.2,8.4-21.5,18.3-21.3
		C793,564.6,806.6,578.9,806.3,591.6z M799.3,594.5c-1.8-10.1-11.9-23.1-17.4-20.6c-4.9,2.2-8.8,8.7-11.1,14.2
		c-2,4.9,11.1,18.1,16.5,16.4C792,603,795.4,598,799.3,594.5z"/>
</g>
</svg>
